<?xml version="1.0" encoding="UTF-8" standalone="no"?>
<!DOCTYPE svg PUBLIC "-//W3C//DTD SVG 1.1//EN"
 "http://www.w3.org/Graphics/SVG/1.1/DTD/svg11.dtd">
<!-- Generated by graphviz version 14.0.4 (20251115.1723)
 -->
<!-- Title: B Pages: 1 -->
<svg width="1217pt" height="854pt"
 viewBox="0.00 0.00 1217.00 854.00" xmlns="http://www.w3.org/2000/svg" xmlns:xlink="http://www.w3.org/1999/xlink">
<g id="graph0" class="graph" transform="scale(1 1) rotate(0) translate(4 850)">
<title>B</title>
<polygon fill="white" stroke="none" points="-4,4 -4,-850 1212.5,-850 1212.5,4 -4,4"/>
<!-- ../../seed.js::(module) -->
<g id="node1" class="node">
<title>../../seed.js::(module)</title>
<polygon fill="none" stroke="black" points="213.25,-36 80.25,-36 80.25,0 213.25,0 213.25,-36"/>
<text xml:space="preserve" text-anchor="middle" x="146.75" y="-12.95" font-family="Times New Roman,serif" font-size="14.00">../../seed.js::(module)</text>
</g>
<!-- ../../seed.js::executeSeeding -->
<g id="node2" class="node">
<title>../../seed.js::executeSeeding</title>
<polygon fill="none" stroke="black" points="605.75,-36 438.25,-36 438.25,0 605.75,0 605.75,-36"/>
<text xml:space="preserve" text-anchor="middle" x="522" y="-12.95" font-family="Times New Roman,serif" font-size="14.00">../../seed.js::executeSeeding</text>
</g>
<!-- ../../seed.js::(module)&#45;&gt;../../seed.js::executeSeeding -->
<g id="edge1" class="edge">
<title>../../seed.js::(module)&#45;&gt;../../seed.js::executeSeeding</title>
<path fill="none" stroke="black" d="M213.62,-18C272.67,-18 360,-18 426.5,-18"/>
<polygon fill="black" stroke="black" points="426.31,-21.5 436.31,-18 426.31,-14.5 426.31,-21.5"/>
</g>
<!-- ../../addCoordinator.js::(module) -->
<g id="node3" class="node">
<title>../../addCoordinator.js::(module)</title>
<polygon fill="none" stroke="black" points="243.25,-90 50.25,-90 50.25,-54 243.25,-54 243.25,-90"/>
<text xml:space="preserve" text-anchor="middle" x="146.75" y="-66.95" font-family="Times New Roman,serif" font-size="14.00">../../addCoordinator.js::(module)</text>
</g>
<!-- ../../addCoordinator.js::addCoordinator -->
<g id="node4" class="node">
<title>../../addCoordinator.js::addCoordinator</title>
<polygon fill="none" stroke="black" points="635.75,-90 408.25,-90 408.25,-54 635.75,-54 635.75,-90"/>
<text xml:space="preserve" text-anchor="middle" x="522" y="-66.95" font-family="Times New Roman,serif" font-size="14.00">../../addCoordinator.js::addCoordinator</text>
</g>
<!-- ../../addCoordinator.js::(module)&#45;&gt;../../addCoordinator.js::addCoordinator -->
<g id="edge2" class="edge">
<title>../../addCoordinator.js::(module)&#45;&gt;../../addCoordinator.js::addCoordinator</title>
<path fill="none" stroke="black" d="M243.39,-72C290.07,-72 346.82,-72 396.81,-72"/>
<polygon fill="black" stroke="black" points="396.52,-75.5 406.52,-72 396.52,-68.5 396.52,-75.5"/>
</g>
<!-- ../../seed/seedRooms.js::(module) -->
<g id="node5" class="node">
<title>../../seed/seedRooms.js::(module)</title>
<polygon fill="none" stroke="black" points="246.62,-144 46.88,-144 46.88,-108 246.62,-108 246.62,-144"/>
<text xml:space="preserve" text-anchor="middle" x="146.75" y="-120.95" font-family="Times New Roman,serif" font-size="14.00">../../seed/seedRooms.js::(module)</text>
</g>
<!-- ../../seed/seedRooms.js::seedRooms -->
<g id="node6" class="node">
<title>../../seed/seedRooms.js::seedRooms</title>
<polygon fill="none" stroke="black" points="628.25,-144 415.75,-144 415.75,-108 628.25,-108 628.25,-144"/>
<text xml:space="preserve" text-anchor="middle" x="522" y="-120.95" font-family="Times New Roman,serif" font-size="14.00">../../seed/seedRooms.js::seedRooms</text>
</g>
<!-- ../../seed/seedRooms.js::(module)&#45;&gt;../../seed/seedRooms.js::seedRooms -->
<g id="edge3" class="edge">
<title>../../seed/seedRooms.js::(module)&#45;&gt;../../seed/seedRooms.js::seedRooms</title>
<path fill="none" stroke="black" d="M246.79,-126C295.08,-126 353.49,-126 403.97,-126"/>
<polygon fill="black" stroke="black" points="403.76,-129.5 413.76,-126 403.76,-122.5 403.76,-129.5"/>
</g>
<!-- ../seedUsers.js::(module) -->
<g id="node7" class="node">
<title>../seedUsers.js::(module)</title>
<polygon fill="none" stroke="black" points="223,-198 70.5,-198 70.5,-162 223,-162 223,-198"/>
<text xml:space="preserve" text-anchor="middle" x="146.75" y="-174.95" font-family="Times New Roman,serif" font-size="14.00">../seedUsers.js::(module)</text>
</g>
<!-- ../seedUsers.js::seed -->
<g id="node8" class="node">
<title>../seedUsers.js::seed</title>
<polygon fill="none" stroke="black" points="585.12,-198 458.88,-198 458.88,-162 585.12,-162 585.12,-198"/>
<text xml:space="preserve" text-anchor="middle" x="522" y="-174.95" font-family="Times New Roman,serif" font-size="14.00">../seedUsers.js::seed</text>
</g>
<!-- ../seedUsers.js::(module)&#45;&gt;../seedUsers.js::seed -->
<g id="edge4" class="edge">
<title>../seedUsers.js::(module)&#45;&gt;../seedUsers.js::seed</title>
<path fill="none" stroke="black" d="M223.28,-180C288.59,-180 382.44,-180 447.23,-180"/>
<polygon fill="black" stroke="black" points="447.06,-183.5 457.06,-180 447.06,-176.5 447.06,-183.5"/>
</g>
<!-- ../seedSpecialUsers.js::(module) -->
<g id="node9" class="node">
<title>../seedSpecialUsers.js::(module)</title>
<polygon fill="none" stroke="black" points="242.88,-252 50.62,-252 50.62,-216 242.88,-216 242.88,-252"/>
<text xml:space="preserve" text-anchor="middle" x="146.75" y="-228.95" font-family="Times New Roman,serif" font-size="14.00">../seedSpecialUsers.js::(module)</text>
</g>
<!-- ../seedSpecialUsers.js::seed -->
<g id="node10" class="node">
<title>../seedSpecialUsers.js::seed</title>
<polygon fill="none" stroke="black" points="605,-252 439,-252 439,-216 605,-216 605,-252"/>
<text xml:space="preserve" text-anchor="middle" x="522" y="-228.95" font-family="Times New Roman,serif" font-size="14.00">../seedSpecialUsers.js::seed</text>
</g>
<!-- ../seedSpecialUsers.js::(module)&#45;&gt;../seedSpecialUsers.js::seed -->
<g id="edge5" class="edge">
<title>../seedSpecialUsers.js::(module)&#45;&gt;../seedSpecialUsers.js::seed</title>
<path fill="none" stroke="black" d="M242.9,-234C299.48,-234 370.96,-234 427.28,-234"/>
<polygon fill="black" stroke="black" points="427.19,-237.5 437.19,-234 427.19,-230.5 427.19,-237.5"/>
</g>
<!-- ../seedCoordinator.js::(module) -->
<g id="node11" class="node">
<title>../seedCoordinator.js::(module)</title>
<polygon fill="none" stroke="black" points="239.88,-306 53.62,-306 53.62,-270 239.88,-270 239.88,-306"/>
<text xml:space="preserve" text-anchor="middle" x="146.75" y="-282.95" font-family="Times New Roman,serif" font-size="14.00">../seedCoordinator.js::(module)</text>
</g>
<!-- ../seedCoordinator.js::seedCoordinator -->
<g id="node12" class="node">
<title>../seedCoordinator.js::seedCoordinator</title>
<polygon fill="none" stroke="black" points="634.62,-306 409.38,-306 409.38,-270 634.62,-270 634.62,-306"/>
<text xml:space="preserve" text-anchor="middle" x="522" y="-282.95" font-family="Times New Roman,serif" font-size="14.00">../seedCoordinator.js::seedCoordinator</text>
</g>
<!-- ../seedCoordinator.js::(module)&#45;&gt;../seedCoordinator.js::seedCoordinator -->
<g id="edge6" class="edge">
<title>../seedCoordinator.js::(module)&#45;&gt;../seedCoordinator.js::seedCoordinator</title>
<path fill="none" stroke="black" d="M240.01,-288C287.68,-288 346.49,-288 397.97,-288"/>
<polygon fill="black" stroke="black" points="397.66,-291.5 407.66,-288 397.66,-284.5 397.66,-291.5"/>
</g>
<!-- ../initFaculty.js::(module) -->
<g id="node13" class="node">
<title>../initFaculty.js::(module)</title>
<polygon fill="none" stroke="black" points="224.5,-360 69,-360 69,-324 224.5,-324 224.5,-360"/>
<text xml:space="preserve" text-anchor="middle" x="146.75" y="-336.95" font-family="Times New Roman,serif" font-size="14.00">../initFaculty.js::(module)</text>
</g>
<!-- ../initFaculty.js::initializeFaculty -->
<g id="node14" class="node">
<title>../initFaculty.js::initializeFaculty</title>
<polygon fill="none" stroke="black" points="618.5,-360 425.5,-360 425.5,-324 618.5,-324 618.5,-360"/>
<text xml:space="preserve" text-anchor="middle" x="522" y="-336.95" font-family="Times New Roman,serif" font-size="14.00">../initFaculty.js::initializeFaculty</text>
</g>
<!-- ../initFaculty.js::(module)&#45;&gt;../initFaculty.js::initializeFaculty -->
<g id="edge7" class="edge">
<title>../initFaculty.js::(module)&#45;&gt;../initFaculty.js::initializeFaculty</title>
<path fill="none" stroke="black" d="M224.64,-342C279.27,-342 353.36,-342 413.79,-342"/>
<polygon fill="black" stroke="black" points="413.78,-345.5 423.78,-342 413.78,-338.5 413.78,-345.5"/>
</g>
<!-- generate_all.js::collectFrontendAxiosCalls -->
<g id="node15" class="node">
<title>generate_all.js::collectFrontendAxiosCalls</title>
<polygon fill="none" stroke="black" points="1005.38,-549 758.38,-549 758.38,-513 1005.38,-513 1005.38,-549"/>
<text xml:space="preserve" text-anchor="middle" x="881.88" y="-525.95" font-family="Times New Roman,serif" font-size="14.00">generate_all.js::collectFrontendAxiosCalls</text>
</g>
<!-- generate_all.js::parseCode -->
<g id="node16" class="node">
<title>generate_all.js::parseCode</title>
<polygon fill="none" stroke="black" points="1208.5,-468 1049.25,-468 1049.25,-432 1208.5,-432 1208.5,-468"/>
<text xml:space="preserve" text-anchor="middle" x="1128.88" y="-444.95" font-family="Times New Roman,serif" font-size="14.00">generate_all.js::parseCode</text>
</g>
<!-- generate_all.js::collectFrontendAxiosCalls&#45;&gt;generate_all.js::parseCode -->
<g id="edge8" class="edge">
<title>generate_all.js::collectFrontendAxiosCalls&#45;&gt;generate_all.js::parseCode</title>
<path fill="none" stroke="black" d="M983.87,-512.57C993.88,-510 1003.82,-507.15 1013.25,-504 1037.35,-495.95 1063.03,-484.18 1083.96,-473.67"/>
<polygon fill="black" stroke="black" points="1085.47,-476.83 1092.79,-469.17 1082.29,-470.6 1085.47,-476.83"/>
</g>
<!-- generate_all.js::collectBackendRoutes -->
<g id="node17" class="node">
<title>generate_all.js::collectBackendRoutes</title>
<polygon fill="none" stroke="black" points="993.38,-495 770.38,-495 770.38,-459 993.38,-459 993.38,-495"/>
<text xml:space="preserve" text-anchor="middle" x="881.88" y="-471.95" font-family="Times New Roman,serif" font-size="14.00">generate_all.js::collectBackendRoutes</text>
</g>
<!-- generate_all.js::collectBackendRoutes&#45;&gt;generate_all.js::parseCode -->
<g id="edge9" class="edge">
<title>generate_all.js::collectBackendRoutes&#45;&gt;generate_all.js::parseCode</title>
<path fill="none" stroke="black" d="M993.55,-464.8C1008.26,-463.18 1023.2,-461.54 1037.5,-459.96"/>
<polygon fill="black" stroke="black" points="1037.77,-463.45 1047.32,-458.88 1037,-456.49 1037.77,-463.45"/>
</g>
<!-- generate_all.js::collectFunctionDefsAndCalls -->
<g id="node18" class="node">
<title>generate_all.js::collectFunctionDefsAndCalls</title>
<polygon fill="none" stroke="black" points="1013.25,-441 750.5,-441 750.5,-405 1013.25,-405 1013.25,-441"/>
<text xml:space="preserve" text-anchor="middle" x="881.88" y="-417.95" font-family="Times New Roman,serif" font-size="14.00">generate_all.js::collectFunctionDefsAndCalls</text>
</g>
<!-- generate_all.js::collectFunctionDefsAndCalls&#45;&gt;generate_all.js::parseCode -->
<g id="edge10" class="edge">
<title>generate_all.js::collectFunctionDefsAndCalls&#45;&gt;generate_all.js::parseCode</title>
<path fill="none" stroke="black" d="M1013.62,-430.67C1021.67,-431.59 1029.66,-432.53 1037.47,-433.5"/>
<polygon fill="black" stroke="black" points="1036.9,-436.95 1047.26,-434.73 1037.78,-430.01 1036.9,-436.95"/>
</g>
<!-- generate_all.js::collectFunctionDefsAndCalls&#45;&gt;generate_all.js::parseCode -->
<g id="edge11" class="edge">
<title>generate_all.js::collectFunctionDefsAndCalls&#45;&gt;generate_all.js::parseCode</title>
<path fill="none" stroke="black" d="M989.62,-441.46C1005.71,-443.34 1022.16,-445.1 1037.84,-446.61"/>
<polygon fill="black" stroke="black" points="1037.32,-450.08 1047.61,-447.53 1037.98,-443.11 1037.32,-450.08"/>
</g>
<!-- generate_all.js::main -->
<g id="node19" class="node">
<title>generate_all.js::main</title>
<polygon fill="none" stroke="black" points="587,-414 457,-414 457,-378 587,-378 587,-414"/>
<text xml:space="preserve" text-anchor="middle" x="522" y="-390.95" font-family="Times New Roman,serif" font-size="14.00">generate_all.js::main</text>
</g>
<!-- generate_all.js::main&#45;&gt;generate_all.js::collectFrontendAxiosCalls -->
<g id="edge12" class="edge">
<title>generate_all.js::main&#45;&gt;generate_all.js::collectFrontendAxiosCalls</title>
<path fill="none" stroke="black" d="M587.1,-390.09C627.42,-389.73 678.45,-395.8 714.5,-423 745.95,-446.73 719.83,-479.28 750.5,-504 751.49,-504.8 752.5,-505.57 753.52,-506.33"/>
<polygon fill="black" stroke="black" points="751.58,-509.24 761.88,-511.74 755.39,-503.37 751.58,-509.24"/>
</g>
<!-- generate_all.js::main&#45;&gt;generate_all.js::collectBackendRoutes -->
<g id="edge13" class="edge">
<title>generate_all.js::main&#45;&gt;generate_all.js::collectBackendRoutes</title>
<path fill="none" stroke="black" d="M587.19,-397.07C625.41,-399.63 674.16,-406.33 714.5,-423 732.98,-430.64 732.27,-441.77 750.5,-450 754.31,-451.72 758.22,-453.33 762.22,-454.83"/>
<polygon fill="black" stroke="black" points="760.93,-458.09 771.52,-458.09 763.24,-451.48 760.93,-458.09"/>
</g>
<!-- generate_all.js::main&#45;&gt;generate_all.js::collectFunctionDefsAndCalls -->
<g id="edge16" class="edge">
<title>generate_all.js::main&#45;&gt;generate_all.js::collectFunctionDefsAndCalls</title>
<path fill="none" stroke="black" d="M587.39,-395.53C629.58,-397.48 686.41,-401.34 738.83,-405.66"/>
<polygon fill="black" stroke="black" points="738.53,-409.15 748.78,-406.5 739.11,-402.17 738.53,-409.15"/>
</g>
<!-- generate_all.js::main&#45;&gt;generate_all.js::collectFunctionDefsAndCalls -->
<g id="edge18" class="edge">
<title>generate_all.js::main&#45;&gt;generate_all.js::collectFunctionDefsAndCalls</title>
<path fill="none" stroke="black" d="M587.39,-406.19C629.58,-410.6 686.41,-415.32 738.83,-418.9"/>
<polygon fill="black" stroke="black" points="738.57,-422.39 748.78,-419.57 739.04,-415.41 738.57,-422.39"/>
</g>
<!-- generate_all.js::generateDotFB -->
<g id="node20" class="node">
<title>generate_all.js::generateDotFB</title>
<polygon fill="none" stroke="black" points="974.25,-387 789.5,-387 789.5,-351 974.25,-351 974.25,-387"/>
<text xml:space="preserve" text-anchor="middle" x="881.88" y="-363.95" font-family="Times New Roman,serif" font-size="14.00">generate_all.js::generateDotFB</text>
</g>
<!-- generate_all.js::main&#45;&gt;generate_all.js::generateDotFB -->
<g id="edge14" class="edge">
<title>generate_all.js::main&#45;&gt;generate_all.js::generateDotFB</title>
<path fill="none" stroke="black" d="M587.39,-391.14C640.34,-387.15 716.38,-381.41 777.79,-376.78"/>
<polygon fill="black" stroke="black" points="777.86,-380.28 787.57,-376.04 777.33,-373.3 777.86,-380.28"/>
</g>
<!-- generate_all.js::renderDotToSvg -->
<g id="node21" class="node">
<title>generate_all.js::renderDotToSvg</title>
<polygon fill="none" stroke="black" points="978,-333 785.75,-333 785.75,-297 978,-297 978,-333"/>
<text xml:space="preserve" text-anchor="middle" x="881.88" y="-309.95" font-family="Times New Roman,serif" font-size="14.00">generate_all.js::renderDotToSvg</text>
</g>
<!-- generate_all.js::main&#45;&gt;generate_all.js::renderDotToSvg -->
<g id="edge15" class="edge">
<title>generate_all.js::main&#45;&gt;generate_all.js::renderDotToSvg</title>
<path fill="none" stroke="black" d="M587.19,-379.29C625.41,-374.37 674.16,-367.67 714.5,-351 732.98,-343.36 732.27,-332.23 750.5,-324 758.12,-320.56 766.18,-317.56 774.42,-314.98"/>
<polygon fill="black" stroke="black" points="775.23,-318.39 783.87,-312.26 773.29,-311.67 775.23,-318.39"/>
</g>
<!-- generate_all.js::main&#45;&gt;generate_all.js::renderDotToSvg -->
<g id="edge17" class="edge">
<title>generate_all.js::main&#45;&gt;generate_all.js::renderDotToSvg</title>
<path fill="none" stroke="black" d="M587.19,-394.93C625.41,-392.37 674.16,-385.67 714.5,-369 732.98,-361.36 732.27,-350.23 750.5,-342 758.12,-338.56 766.18,-335.56 774.42,-332.93"/>
<polygon fill="black" stroke="black" points="775.28,-336.33 783.87,-330.12 773.29,-329.62 775.28,-336.33"/>
</g>
<!-- generate_all.js::main&#45;&gt;generate_all.js::renderDotToSvg -->
<g id="edge19" class="edge">
<title>generate_all.js::main&#45;&gt;generate_all.js::renderDotToSvg</title>
<path fill="none" stroke="black" d="M587.19,-410.57C625.41,-410.37 674.16,-403.67 714.5,-387 732.98,-379.36 732.27,-368.23 750.5,-360 776.08,-348.46 806.72,-341.79 831.87,-336.05"/>
<polygon fill="black" stroke="black" points="832.57,-339.48 841.52,-333.81 830.99,-332.66 832.57,-339.48"/>
</g>
<!-- generate_all.js::(module) -->
<g id="node22" class="node">
<title>generate_all.js::(module)</title>
<polygon fill="none" stroke="black" points="223,-414 70.5,-414 70.5,-378 223,-378 223,-414"/>
<text xml:space="preserve" text-anchor="middle" x="146.75" y="-390.95" font-family="Times New Roman,serif" font-size="14.00">generate_all.js::(module)</text>
</g>
<!-- generate_all.js::(module)&#45;&gt;generate_all.js::main -->
<g id="edge20" class="edge">
<title>generate_all.js::(module)&#45;&gt;generate_all.js::main</title>
<path fill="none" stroke="black" d="M223.28,-396C287.99,-396 380.71,-396 445.43,-396"/>
<polygon fill="black" stroke="black" points="445.26,-399.5 455.26,-396 445.26,-392.5 445.26,-399.5"/>
</g>
<!-- ../../routes/studentInputRoutes.js::(module) -->
<g id="node23" class="node">
<title>../../routes/studentInputRoutes.js::(module)</title>
<polygon fill="none" stroke="black" points="272.12,-468 21.38,-468 21.38,-432 272.12,-432 272.12,-468"/>
<text xml:space="preserve" text-anchor="middle" x="146.75" y="-444.95" font-family="Times New Roman,serif" font-size="14.00">../../routes/studentInputRoutes.js::(module)</text>
</g>
<!-- ../../routes/studentInputRoutes.js::isMissing -->
<g id="node24" class="node">
<title>../../routes/studentInputRoutes.js::isMissing</title>
<polygon fill="none" stroke="black" points="648.88,-522 395.12,-522 395.12,-486 648.88,-486 648.88,-522"/>
<text xml:space="preserve" text-anchor="middle" x="522" y="-498.95" font-family="Times New Roman,serif" font-size="14.00">../../routes/studentInputRoutes.js::isMissing</text>
</g>
<!-- ../../routes/studentInputRoutes.js::(module)&#45;&gt;../../routes/studentInputRoutes.js::isMissing -->
<g id="edge21" class="edge">
<title>../../routes/studentInputRoutes.js::(module)&#45;&gt;../../routes/studentInputRoutes.js::isMissing</title>
<path fill="none" stroke="black" d="M271.41,-468.5C290.84,-471.37 310.72,-474.28 329.5,-477 346.97,-479.53 365.35,-482.16 383.52,-484.74"/>
<polygon fill="black" stroke="black" points="382.9,-488.19 393.3,-486.13 383.89,-481.26 382.9,-488.19"/>
</g>
<!-- ../../routes/studentInputRoutes.js::parseCount -->
<g id="node25" class="node">
<title>../../routes/studentInputRoutes.js::parseCount</title>
<polygon fill="none" stroke="black" points="653,-468 391,-468 391,-432 653,-432 653,-468"/>
<text xml:space="preserve" text-anchor="middle" x="522" y="-444.95" font-family="Times New Roman,serif" font-size="14.00">../../routes/studentInputRoutes.js::parseCount</text>
</g>
<!-- ../../routes/studentInputRoutes.js::(module)&#45;&gt;../../routes/studentInputRoutes.js::parseCount -->
<g id="edge22" class="edge">
<title>../../routes/studentInputRoutes.js::(module)&#45;&gt;../../routes/studentInputRoutes.js::parseCount</title>
<path fill="none" stroke="black" d="M254.21,-431.51C300.69,-429.34 355.36,-429.18 403.07,-431.02"/>
<polygon fill="black" stroke="black" points="402.75,-434.51 412.89,-431.44 403.05,-427.52 402.75,-434.51"/>
</g>
<!-- ../../routes/studentInputRoutes.js::(module)&#45;&gt;../../routes/studentInputRoutes.js::parseCount -->
<g id="edge23" class="edge">
<title>../../routes/studentInputRoutes.js::(module)&#45;&gt;../../routes/studentInputRoutes.js::parseCount</title>
<path fill="none" stroke="black" d="M272.56,-443.59C306.79,-443.2 344.14,-443.15 379.25,-443.43"/>
<polygon fill="black" stroke="black" points="379.02,-446.92 389.05,-443.52 379.08,-439.92 379.02,-446.92"/>
</g>
<!-- ../../routes/studentInputRoutes.js::(module)&#45;&gt;../../routes/studentInputRoutes.js::parseCount -->
<g id="edge24" class="edge">
<title>../../routes/studentInputRoutes.js::(module)&#45;&gt;../../routes/studentInputRoutes.js::parseCount</title>
<path fill="none" stroke="black" d="M272.56,-456.41C306.79,-456.8 344.14,-456.85 379.25,-456.57"/>
<polygon fill="black" stroke="black" points="379.08,-460.08 389.05,-456.48 379.02,-453.08 379.08,-460.08"/>
</g>
<!-- ../../routes/studentInputRoutes.js::(module)&#45;&gt;../../routes/studentInputRoutes.js::parseCount -->
<g id="edge25" class="edge">
<title>../../routes/studentInputRoutes.js::(module)&#45;&gt;../../routes/studentInputRoutes.js::parseCount</title>
<path fill="none" stroke="black" d="M254.21,-468.49C300.69,-470.66 355.36,-470.82 403.07,-468.98"/>
<polygon fill="black" stroke="black" points="403.05,-472.48 412.89,-468.56 402.75,-465.49 403.05,-472.48"/>
</g>
<!-- ../../routes/sessionRoutes.js::(module) -->
<g id="node26" class="node">
<title>../../routes/sessionRoutes.js::(module)</title>
<polygon fill="none" stroke="black" points="257.88,-630 35.62,-630 35.62,-594 257.88,-594 257.88,-630"/>
<text xml:space="preserve" text-anchor="middle" x="146.75" y="-606.95" font-family="Times New Roman,serif" font-size="14.00">../../routes/sessionRoutes.js::(module)</text>
</g>
<!-- ../../routes/sessionRoutes.js::parseDateString -->
<g id="node27" class="node">
<title>../../routes/sessionRoutes.js::parseDateString</title>
<polygon fill="none" stroke="black" points="651.5,-684 392.5,-684 392.5,-648 651.5,-648 651.5,-684"/>
<text xml:space="preserve" text-anchor="middle" x="522" y="-660.95" font-family="Times New Roman,serif" font-size="14.00">../../routes/sessionRoutes.js::parseDateString</text>
</g>
<!-- ../../routes/sessionRoutes.js::(module)&#45;&gt;../../routes/sessionRoutes.js::parseDateString -->
<g id="edge26" class="edge">
<title>../../routes/sessionRoutes.js::(module)&#45;&gt;../../routes/sessionRoutes.js::parseDateString</title>
<path fill="none" stroke="black" d="M258.26,-619.76C281.77,-623.03 306.45,-626.66 329.5,-630 364.28,-635.04 402.63,-640.47 435.82,-645.74"/>
<polygon fill="black" stroke="black" points="434.94,-649.15 445.37,-647.29 436.06,-642.24 434.94,-649.15"/>
</g>
<!-- ../../routes/sessionRoutes.js::(module)&#45;&gt;../../routes/sessionRoutes.js::parseDateString -->
<g id="edge29" class="edge">
<title>../../routes/sessionRoutes.js::(module)&#45;&gt;../../routes/sessionRoutes.js::parseDateString</title>
<path fill="none" stroke="black" d="M216.78,-630.5C250.72,-636.45 292.25,-642.61 329.5,-648 346.13,-650.41 363.57,-652.9 380.88,-655.3"/>
<polygon fill="black" stroke="black" points="380.34,-658.76 390.72,-656.65 381.29,-651.82 380.34,-658.76"/>
</g>
<!-- ../../routes/sessionRoutes.js::extractSessionAndDay -->
<g id="node28" class="node">
<title>../../routes/sessionRoutes.js::extractSessionAndDay</title>
<polygon fill="none" stroke="black" points="669.88,-630 374.12,-630 374.12,-594 669.88,-594 669.88,-630"/>
<text xml:space="preserve" text-anchor="middle" x="522" y="-606.95" font-family="Times New Roman,serif" font-size="14.00">../../routes/sessionRoutes.js::extractSessionAndDay</text>
</g>
<!-- ../../routes/sessionRoutes.js::(module)&#45;&gt;../../routes/sessionRoutes.js::extractSessionAndDay -->
<g id="edge27" class="edge">
<title>../../routes/sessionRoutes.js::(module)&#45;&gt;../../routes/sessionRoutes.js::extractSessionAndDay</title>
<path fill="none" stroke="black" d="M258.22,-605.78C290.91,-605.3 327.35,-605.15 362.44,-605.32"/>
<polygon fill="black" stroke="black" points="362.25,-608.82 372.27,-605.38 362.29,-601.82 362.25,-608.82"/>
</g>
<!-- ../../routes/sessionRoutes.js::(module)&#45;&gt;../../routes/sessionRoutes.js::extractSessionAndDay -->
<g id="edge30" class="edge">
<title>../../routes/sessionRoutes.js::(module)&#45;&gt;../../routes/sessionRoutes.js::extractSessionAndDay</title>
<path fill="none" stroke="black" d="M258.22,-618.22C290.91,-618.7 327.35,-618.85 362.44,-618.68"/>
<polygon fill="black" stroke="black" points="362.29,-622.18 372.27,-618.62 362.25,-615.18 362.29,-622.18"/>
</g>
<!-- ../../routes/sessionRoutes.js::parseCourseInfo -->
<g id="node29" class="node">
<title>../../routes/sessionRoutes.js::parseCourseInfo</title>
<polygon fill="none" stroke="black" points="652.62,-576 391.38,-576 391.38,-540 652.62,-540 652.62,-576"/>
<text xml:space="preserve" text-anchor="middle" x="522" y="-552.95" font-family="Times New Roman,serif" font-size="14.00">../../routes/sessionRoutes.js::parseCourseInfo</text>
</g>
<!-- ../../routes/sessionRoutes.js::(module)&#45;&gt;../../routes/sessionRoutes.js::parseCourseInfo -->
<g id="edge28" class="edge">
<title>../../routes/sessionRoutes.js::(module)&#45;&gt;../../routes/sessionRoutes.js::parseCourseInfo</title>
<path fill="none" stroke="black" d="M216.78,-593.5C250.72,-587.55 292.25,-581.39 329.5,-576 345.79,-573.64 362.86,-571.2 379.81,-568.85"/>
<polygon fill="black" stroke="black" points="380,-572.36 389.43,-567.53 379.05,-565.42 380,-572.36"/>
</g>
<!-- ../../routes/sessionRoutes.js::(module)&#45;&gt;../../routes/sessionRoutes.js::parseCourseInfo -->
<g id="edge31" class="edge">
<title>../../routes/sessionRoutes.js::(module)&#45;&gt;../../routes/sessionRoutes.js::parseCourseInfo</title>
<path fill="none" stroke="black" d="M258.26,-604.24C281.77,-600.97 306.45,-597.34 329.5,-594 364.28,-588.96 402.63,-583.53 435.82,-578.26"/>
<polygon fill="black" stroke="black" points="436.06,-581.76 445.37,-576.71 434.94,-574.85 436.06,-581.76"/>
</g>
<!-- ../../routes/seatingArrangementRoutes.js::(module) -->
<g id="node30" class="node">
<title>../../routes/seatingArrangementRoutes.js::(module)</title>
<polygon fill="none" stroke="black" points="293.5,-738 0,-738 0,-702 293.5,-702 293.5,-738"/>
<text xml:space="preserve" text-anchor="middle" x="146.75" y="-714.95" font-family="Times New Roman,serif" font-size="14.00">../../routes/seatingArrangementRoutes.js::(module)</text>
</g>
<!-- ../../routes/seatingArrangementRoutes.js::formatDateToExamString -->
<g id="node31" class="node">
<title>../../routes/seatingArrangementRoutes.js::formatDateToExamString</title>
<polygon fill="none" stroke="black" points="714.5,-738 329.5,-738 329.5,-702 714.5,-702 714.5,-738"/>
<text xml:space="preserve" text-anchor="middle" x="522" y="-714.95" font-family="Times New Roman,serif" font-size="14.00">../../routes/seatingArrangementRoutes.js::formatDateToExamString</text>
</g>
<!-- ../../routes/seatingArrangementRoutes.js::(module)&#45;&gt;../../routes/seatingArrangementRoutes.js::formatDateToExamString -->
<g id="edge32" class="edge">
<title>../../routes/seatingArrangementRoutes.js::(module)&#45;&gt;../../routes/seatingArrangementRoutes.js::formatDateToExamString</title>
<path fill="none" stroke="black" d="M293.93,-720C301.78,-720 309.72,-720 317.71,-720"/>
<polygon fill="black" stroke="black" points="317.52,-723.5 327.52,-720 317.52,-716.5 317.52,-723.5"/>
</g>
<!-- ../../routes/dutyRoutes.js::(module) -->
<g id="node32" class="node">
<title>../../routes/dutyRoutes.js::(module)</title>
<polygon fill="none" stroke="black" points="250.38,-792 43.12,-792 43.12,-756 250.38,-756 250.38,-792"/>
<text xml:space="preserve" text-anchor="middle" x="146.75" y="-768.95" font-family="Times New Roman,serif" font-size="14.00">../../routes/dutyRoutes.js::(module)</text>
</g>
<!-- ../../routes/dutyRoutes.js::shuffle -->
<g id="node33" class="node">
<title>../../routes/dutyRoutes.js::shuffle</title>
<polygon fill="none" stroke="black" points="619.25,-792 424.75,-792 424.75,-756 619.25,-756 619.25,-792"/>
<text xml:space="preserve" text-anchor="middle" x="522" y="-768.95" font-family="Times New Roman,serif" font-size="14.00">../../routes/dutyRoutes.js::shuffle</text>
</g>
<!-- ../../routes/dutyRoutes.js::(module)&#45;&gt;../../routes/dutyRoutes.js::shuffle -->
<g id="edge33" class="edge">
<title>../../routes/dutyRoutes.js::(module)&#45;&gt;../../routes/dutyRoutes.js::shuffle</title>
<path fill="none" stroke="black" d="M250.73,-774C301.18,-774 361.92,-774 413.03,-774"/>
<polygon fill="black" stroke="black" points="412.93,-777.5 422.93,-774 412.93,-770.5 412.93,-777.5"/>
</g>
<!-- ../../middleware/auth.js::adminAuth -->
<g id="node34" class="node">
<title>../../middleware/auth.js::adminAuth</title>
<polygon fill="none" stroke="black" points="252.62,-846 40.88,-846 40.88,-810 252.62,-810 252.62,-846"/>
<text xml:space="preserve" text-anchor="middle" x="146.75" y="-822.95" font-family="Times New Roman,serif" font-size="14.00">../../middleware/auth.js::adminAuth</text>
</g>
<!-- ../../middleware/auth.js::auth -->
<g id="node35" class="node">
<title>../../middleware/auth.js::auth</title>
<polygon fill="none" stroke="black" points="608.75,-846 435.25,-846 435.25,-810 608.75,-810 608.75,-846"/>
<text xml:space="preserve" text-anchor="middle" x="522" y="-822.95" font-family="Times New Roman,serif" font-size="14.00">../../middleware/auth.js::auth</text>
</g>
<!-- ../../middleware/auth.js::adminAuth&#45;&gt;../../middleware/auth.js::auth -->
<g id="edge34" class="edge">
<title>../../middleware/auth.js::adminAuth&#45;&gt;../../middleware/auth.js::auth</title>
<path fill="none" stroke="black" d="M252.71,-828C306.35,-828 371.19,-828 423.7,-828"/>
<polygon fill="black" stroke="black" points="423.53,-831.5 433.53,-828 423.53,-824.5 423.53,-831.5"/>
</g>
</g>
</svg>
